<?xml version="1.0" encoding="UTF-8"?>
<svg version="1.1" viewBox="0 0 800 800" width="800" height="800" xmlns="http://www.w3.org/2000/svg">
<path transform="translate(0)" d="m0 0h800v800h-800z" fill="#020203"/>
<path transform="translate(390,209)" d="m0 0h39l22 3 21 5 8 3 14 5 16 8v2l5 1v2l6 2 14 11 13 12 9 11 9 13 8 15 7 19 5 25 1 19-8 10-10 7-11 5-13 4-24 4-40 4-31 2-51 2h-61l-30-2-25-3-30-5-25-6-4-1-4-14-1-12v-22l5-21 4-10 5-9 9-13 12-14 12-11 12-9h2v-2h3v-2h3v-2l11-6 18-10 8-3 8-4 10-4 20-5 21-3z" fill="#E77F31"/>
<path transform="translate(374,23)" d="m0 0 12 2 19 6 15 8 6 3v2l4 2 10 8 8 12 3 9v17l-6 16v15l3 1v2h3v2h18l10-3 7-6 4-9v-9l-4-11-7-11v-3l13 10 13 13 9 13 4 8 2 8v8l-3 9-7 8-5 4-15 9-13 10-8 8-4 6v6l5 2h5l4-5 11-7 5-2 8-2h23l1 2-14 5-9 6-4 6-1 5 13 5 4 2v2l4 1 16 9 14 11 10 9 10 10 11 14 11 18 8 17 6 18 4 17 3 20 9 8 8 7 9 9 7 10 5 10 1-1v-8l-2-10-5-11-8-11-1-3h-2l-5-6-5-4-4-9v-12l2-6-4 2-1-26-5-12-10-13-8-11-4-8-1-3v-10l6-9 4-2 1 17 3 10 5 7 7 4 2-4 2-14 2-31 1-7 2 2 4 29 4 22 2 14v20l-4 13-4 6 1-1 8-6 10-5 6-8 2-6 1-13-2-14-6-20-4-9 1-2 9 7 10 11 10 15 7 16 4 16v22l-3 12-5 12-3 8-2 9-1 10v13l3 19 5 14 1 1 7-18 1-4v-22l3 4 6 13 4 17v19l-4 16-8 14-11 12-9 8-7 4v29l-4 6-12 10-8 7-7 10-5 11-2 16-4-5-3-8-1-6v-13l4-8 9-9 5-4 2-5 1-6-17 10-10 9-5 8-2 6-2 21-4 16-7 14-7 9-10 9-8 5-8 4-17 5-27 4-3-1 8-3 18-6 19-10 12-9 11-11 9-15 4-11 2-11 1-17 2-5v-16l-2-12-2-5 1-4 12-11 6-9h2v-3h2v-3h2l1-5 8-16 1-3 9-6 4-6 1-6-3-6-9-6-7-3 6-12v-10l-4-8-7-6-14-7-5-2-4-30-5-19-6-16-9-17-10-14-11-12-9-9-7-5-3-3-2-1v-2l-5-2-9-6-18-9-13-5-7-3-17-4-12-3-16-2h-47l-28 4-9 2-7 2-15 6-11 5-16 8-9 5-12 7-14 10-14 12-3 4h-2v2h-2l-2 4-9 11-8 13-8 16-5 17-2 16v14l2 15 3 10v3l-8 3-13 10-9 14-4 11-1 5-14 1-6 5-3 5-9 6-3 4v8l3 5 6 4 7 1h20l15-4 11-6 4-2 1 19 4 10 6 8 4 4-2 5-5 10v14l5 9 2 2 1 25 3 13 7 14 9 11 10 8 10 6 17 6 14 3 17 3v1l-22-1-23-3-15-5-14-7-12-11-7-10-4-10-2-10-1-27-4-10-8-10-9-8-7-5-12-5-9-4-13-5-2-1v-2l-5-1v-2l-4-2-7-8-7-16v-23l2-30 1-58 2-3 3 9 3 16 4 10 5 8 2 7v8l5-5 2-3v-12l-5-12-6-11-2-11v-16l3-12 7-12 4-7 5-13 4-9 5-15 4-10 6-23 2-10 4 4 2 5h2v3h2v3h2l5 10 4 12v18l-5 12-5 6h-2l-4-16-1-12-3 11v21l3 15 4 9v3h2l4 8 2-4 3-14 7-20 8-16 9-14 9-11 7-8h2l2-4 14-11 14-10 9-6 16-8 16-6 7-3h4l-7-8-10-6-8-3-5-2v-1h21l9 2 18 10 5 1 17-3-8-14-3-11v-13l3-13 3-6 9-7 17-12 11-9 7-8 3-5 2-9v-20l-4-13-7-12-11-11-14-8z" fill="#DC2B28"/>
<path transform="translate(175,583)" d="m0 0 7 6 12 11 14 11 15 11 19 12 24 13 26 11 27 9 25 6 24 4 21 2h43l21-2 24-4 25-6 27-9 22-9 15-8 11-6 15-9 17-12 14-11 11-10 8-7 4-3v17l-2 19 27 11 33 11-6 7-10 10-11 9-13 11-14 10-15 10-18 11-24 13-20 9-26 10-26 8-29 7-32 5-21 2h-56l-30-3-28-5-25-6-29-9-28-11-32-16-14-8-22-14-12-9-13-10-13-11-12-11-8-8 4-3 26-8 27-11 3-2-2-19z" fill="#BD4325"/>
<path transform="translate(390,117)" d="m0 0 3 1 8 16 6 13v2h2l8 17 9 16 7 16-1 2-46 1-28 4-9 2-7 2-15 6-11 5-16 8-9 5-12 7-14 10-14 12-3 4h-2v2h-2l-2 4-9 11-8 13-8 16-5 17-2 16v14l2 15 3 10v3l-8 3-13 10-9 14-4 11-1 5-14 1-6 5-3 5-9 6-3 4v8l3 5 6 4 7 1h20l15-4 11-6 4-2 1 19 4 10 6 8 4 4-2 5-5 10v14l5 9 2 2 1 25 3 13 7 14 9 11 10 8 10 6 17 6 14 3 17 3v1l-22-1-23-3-15-5-14-7-12-11-7-10-4-10-2-10-1-27-4-10-8-10-9-8-7-5-12-5-9-4-13-5-2-1v-2l-5-1v-2l-4-2-7-8-7-16v-23l2-30 1-58 2-3 3 9 3 16 4 10 5 8 2 7v8l5-5 2-3v-12l-5-12-6-11-2-11v-16l3-12 7-12 4-7 5-13 4-9 5-15 4-10 6-23 2-10 4 4 2 5h2v3h2v3h2l5 10 4 12v18l-5 12-5 6h-2l-4-16-1-12-3 11v21l3 15 4 9v3h2l4 8 2-4 3-14 7-20 8-16 9-14 9-11 7-8h2l2-4 14-11 14-10 9-6 16-8 16-6 7-3h4l-7-8-10-6-8-3-5-2v-1h21l9 2 18 10 5 1 17-3-8-14-3-11v-13l3-13 3-6 9-7 17-12z" fill="#E45B2F"/>
<path transform="translate(476,219)" d="m0 0 18 6 16 8v2l5 1v2l6 2 14 11 13 12 9 11 9 13 8 15 7 19 5 25 1 19-8 10-10 7-11 5-13 4-24 4-40 4-31 2-28 1h-18v-1l7-1 16-46h2l1-5h2v-10l4-10 7-2-2-11 3-12 3-7 11-31 1-2h3l1-13 11-31z" fill="#C4612F"/>
<path transform="translate(235,547)" d="m0 0 9 2 10 4 11 3 8 3 22 5 7 2 13 2 9 2 23 3 11 1 3 1 27 1h35l27-1 17-2 16-2 20-3 11-2h6l-4 7-6 7h-2l-2 4-11 12-7 8-9 10-8 10-13 1h-81l-28-2-28-3-32-6-18-6-8-4v-2h-3v-2l-4-2-7-6-9-14-4-11-1-7z" fill="#E57E31"/>
<path transform="translate(374,23)" d="m0 0 12 2 19 6 15 8 6 3v2l4 2 10 8 8 12 3 9v17l-6 16v15l3 1v2h3v2h18l10-3 7-6 4-9v-9l-4-11-7-11v-3l13 10 13 13 9 13 4 8 2 8v8l-3 9-7 8-5 4-15 9-13 10-8 8-4 6v6l5 2h5l4-5 11-7 5-2 8-2h23l1 2-14 5-9 6-4 6-1 5 13 5 4 2v2l4 1 14 8 1 2 1 6 3 10-4-1-3-3-2-1v-2l-5-2-9-6-18-9-13-5-7-3-17-4-12-3-16-2-4-10-8-16v-2l-2-1-4-8v-3l-2-1-4-8v-3h-2l-7-15v-2l-2-1-4-9-3-6 12-11 5-8 2-9v-20l-4-13-7-12-11-11-14-8z" fill="#E55C2F"/>
<path transform="translate(529,247)" d="m0 0 6 4 13 12 9 11 9 13 8 15 7 19 5 25 1 19-8 10-10 7-11 5-13 4-24 4-40 4h-10v-1h6l1-7 18-52 13-37v-2l7-4h2l-4-4 1-7 1-3 5-2 3-4-6-2 2-1 1-5 7-20z" fill="#7D2E25"/>
<path transform="translate(147,328)" d="m0 0 4 2 11 23 8 15 10 19 6 13v2h2l1 5-6 12-3 11-14 1-6 5-3 5-9 6-3 4v8l3 5 6 4 7 1h20l15-4 11-6 4-2 1 19 4 10 6 8 4 4-2 5-5 10v14l5 9 2 2 1 25 3 13 7 14 9 11 10 8 10 6 17 6 14 3 17 3v1l-22-1-23-3-15-5-14-7-12-11-7-10-4-10-2-10-1-27-4-10-8-10-9-8-7-5-12-5-9-4-13-5-2-1v-2l-5-1v-2l-4-2-7-8-7-16v-23l2-30 1-58 2-3 3 9 3 16 4 10 5 8 2 7v8l5-5 2-3v-12l-5-12-6-11-2-11v-16l3-10z" fill="#F5A911"/>
<path transform="translate(218,401)" d="m0 0h9l2 2-1 4-6 6h-2v5l6-3 5 1 7 7 5 9 1 6 13 2v-2l-6-1-4-5-2-12h-6l-1-1v-5l4-3 10-4h10l7 3 10 1h7l3 3-4 5-2 6 19-5 5 1 2 2h5l2-7 3-2h18l3 4v24l2 5 1 1h5l1-4h-5v-9l7-10 10-7 6-2h16l-1 4-6 4-6 16-6 6-7 2v2l-10 5-8 2h-18l-20-9-3-1h-10l-5 4-6 10-5 5-3 1h-14l-15-9-7-7-10-16-4 1-7 8-11 9-10 5-13 3h-17l-7-3-1-4 7-5 5-1 2-7 2-2h19l1-12 5-13 4-5h2v-2l13-5z" fill="#92A63D"/>
<path transform="translate(582,441)" d="m0 0h7l5 2-1 2-11 3-17 3-14 7-13 11-13 17-14 24-5 9-8 12-12 14-11 9-8 4-4 1h-11l-9-4-7-6-7-10-4-8-5-15-7-13-9-12-10-10-14-9-2-2 10-9 5-5 4-2 9 6 12 11 7 10 5 10 8 22 8 16 5 6 3 2h10l6-5 4-7 5-10 4-12 2-8 6-21 8-11 12-9 17-6 12-2 29-1z" fill="#F4B325"/>
<path transform="translate(629,439)" d="m0 0h2l10 20 10 19 6 11 3 1v21l-4 6-12 10-8 7-7 10-5 11-2 16-4-5-3-8-1-6v-13l4-8 9-9 5-4 2-5 1-6-17 10-10 9-5 8-2 6-2 21-4 16-7 14-7 9-10 9-8 5-8 4-17 5-27 4-3-1 8-3 18-6 19-10 12-9 11-11 9-15 4-11 2-11 1-17 2-5v-16l-2-12-2-5 1-4 12-11 6-9h2v-3h2v-3h2l1-5 8-16 1-3z" fill="#E55C2F"/>
<path transform="translate(222,452)" d="m0 0 12 12 15 9 14 5 16 3 7 1h38l26-3 13-2h8l8 4 11 8 10 10 7 10 3 5v3l-41-2-45-4-54-7-21-4-12-5-6-4-8-9-3-8v-15z" fill="#DC2B28"/>
<path transform="translate(390,117)" d="m0 0 3 1 8 16 6 13v2h2l8 17 9 16 7 16-1 2-46 1-28 4-9 2-7 2-7 1-10-19v-3l9 3 11 7 9-1 12-2-8-14-3-11v-13l3-13 3-6 9-7 17-12z" fill="#F5AA10"/>
<path transform="translate(529,247)" d="m0 0 6 4 13 12 5 6-2 5-19 55-14 40-8 24v2l-7 2-22 2h-10v-1h6l1-7 18-52 13-37v-2l7-4h2l-4-4 1-7 1-3 5-2 3-4-6-2 2-1 1-5 7-20z" fill="#953E2A"/>
<path transform="translate(501,429)" d="m0 0h6l21 9-1 2-13 4-12 6-9 7-7 9-5 10-8 30-6 15-6 8-5-1-4-5-7-15-8-23-7-12-8-10-7-7-8-6 4-1 14 1h22l15-2 17-5 14-8z" fill="#F4B425"/>
<path transform="translate(210,457)" d="m0 0h1l1 19 4 10 6 8 4 4-2 5-5 10v14l5 9 2 2 1 25 3 13 7 14 9 11 10 8 10 6 17 6 14 3 17 3v1l-22-1-23-3-15-5-14-7-12-11-7-10-4-10-2-10-1-27-4-10-8-10-9-8-7-5-7-3-5-12-8-15-4-10 24-3 12-4z" fill="#FABF06"/>
<path transform="translate(581,546)" d="m0 0h1v8l-4 13-6 11-9 11-14 11-17 9-27 9-19 4-14 1 4-6 9-10 7-8 12-14 4-5h2l2-4 7-9-3-2 25-6 29-9z" fill="#7C2E25"/>
<path transform="translate(255,510)" d="m0 0 22 3 48 6 47 4 14 1 28 1 6 15 3 6h-39l-40-2-31-3-24-4-18-6-10-7-5-7z" fill="#602A1B"/>
<path transform="translate(252,407)" d="m0 0h10l7 3 10 1h7l3 3-4 5-2 6 19-5 5 1 2 2h5l2-7 3-2h18l3 4v24l2 5 1 1h5l1-4h-5v-9l7-10 10-7 6-2h16l-1 4-6 4-6 16-6 6-2-1 4-6 6-14 3-5-6 4-7 8-9 15-6 4-7 1h-10l-11-2-5-3-7-8-7-3h-11l-10 4-11 8-8 4-7-1-5-5-3-6v-2l12 2v-2l-6-1-4-5-2-12h-6l-1-1v-5l4-3z" fill="#92A73E"/>
<path transform="translate(589,382)" d="m0 0 7 1v2l4 2 10 10v8l-8 7 21 6 7 5-1 5-9 7-13 6-4-2-4-3-8-3h-11l-13 4h-12l-12-3-2-1v-2l-5-1-6-3-10-9v-5l7 3 13 7 8 2h8l3-2-1-4-13-9-4-5 1-2 5-2h11l7 3 3 2h4l-1-4-1-1v-5l8-7z" fill="#889F45"/>
<path transform="translate(295,329)" d="m0 0h11l10 5 7 9 5 9 7 6 21 9 6 5v5l-5 4-11 3h-32l-16-1-10-6-5-7-2-7v-10l4-13 4-6z" fill="#FCF5E4"/>
<path transform="translate(233,504)" d="m0 0 7 1 6 2 3 15 6 8 8 6 8 4 13 4 6 2 28 4 27 2 5 1 80 2 8 7 7 4v1l-15 1h-48l-28-2-29-4-35-7-9-3-13-3-21-7-10-5v-2l-4-2-4-5-2-3v-9l4-9z" fill="#DD7830"/>
<path transform="translate(582,441)" d="m0 0h7l5 2-1 2-11 3-17 3-14 7-13 11-13 17-14 24-5 9-8 12-3 3-1-3-1-55h-2l2-5 7-9 11-8 17-6 12-2 29-1z" fill="#E57E31"/>
<path transform="translate(518,239)" d="m0 0 7 4 4 3-3 10-6 17 5 3-5 6h-4l-2 10 4 2v2l-8 5-12 36-15 43-6 18-10 2h-9v-1l5-1 1-7 15-44 9-26 10-28 2-9 5-3-2-4 7-18 6-17z" fill="#AD4F2D"/>
<path transform="translate(258,568)" d="m0 0 6 1 11 5 16 4 29 4 13 5 17 9 12 6 3 1 29 3 26 4-2 2-12 3-8 1h-20l-16-3-15-4-21-2-23-5-18-6-12-6-9-8-6-10z" fill="#FCF5E4"/>
<path transform="translate(366,134)" d="m0 0h4l9 17 24 48-3 1-23 2-23 4-15 4-5-1-9-18v-3l9 3 11 7 9-1 12-2-8-14-3-11v-13l3-13 3-6z" fill="#FAC005"/>
<path transform="translate(405,102)" d="m0 0h3l12 23 14 27 25 50v2h-8l-2-1-16-2-4-10-8-16v-2l-2-1-4-8v-3l-2-1-4-8v-3h-2l-7-15v-2l-2-1-4-9-3-6 12-11z" fill="#E77F31"/>
<path transform="translate(610,448)" d="m0 0h2l-1 5-8 13-9 11-10 9-15 9-21 8-22 6h-4l2-5 9-15 8-10 8-9 10-7 8-4 28-6z" fill="#DA2B28"/>
<path transform="translate(160,303)" d="m0 0 4 4 15 30 8 15 18 36 1 3-11 8-5 7-2-4h-2l-11-23-6-11-10-19-6-13v-2l-2-1v-3l-5-1 2-6 8-13 2-6z" fill="#E77F31"/>
<path transform="translate(529,247)" d="m0 0 6 4 4 4-2 9-19 55-13 37-12 34-2 7-10 2h-10v-1h6l1-7 18-52 13-37v-2l7-4h2l-4-4 1-7 1-3 5-2 3-4-6-2 2-1 1-5 7-20z" fill="#9D482A"/>
<path transform="translate(494,416)" d="m0 0h3l-1 4-11 4-11 3-28 8-19 4-7 1h-22l-5 3-12 13-9 8-6 4-14 3-27 3h-39l-8-1 6-7 6-10 7-1 10 5 9 4 6 1h16l14-3 12-6 13-10 7-7 11-15 2-4h2l3 5 3 3 5 2h26l19-2 25-6 12-5z" fill="#90A13D"/>
<path transform="translate(129,412)" d="m0 0 4 2 9 17 7 15-4 5v8l3 5 6 4 18 2v1l-9 1 8 16 8 17v2l-5-1-9-4-13-5-2-1v-2l-5-1v-2l-4-2-7-8-7-16v-23z" fill="#E25B2F"/>
<path transform="translate(622,212)" d="m0 0 2 2 4 29 4 22 2 14v20l-4 13-4 6v3l-3 2h-2l-3 1-1-26-5-12-10-13-8-11-4-8-1-3v-10l6-9 4-2 1 17 3 10 5 7 7 4 2-4 2-14 2-31zm8 102 2 1-5 4 2-4z" fill="#D32B27"/>
<path transform="translate(269,305)" d="m0 0 6 2 3 6 1 14-2 17-4 15-2-3-1-16-1 1-4 8-1 5v15l3 15 2 9-8-1-9-3-3-7-3-17v-21l4-14 8-15 7-8z" fill="#FCF5E4"/>
<path transform="translate(478,76)" d="m0 0 7 4 13 12 7 7 9 13 4 8 2 8v8l-3 9-7 8-5 4-6 4-2-1-2-6-13-26v-2l-3-1 7-6 4-9v-9l-4-11-7-11z" fill="#DA2B28"/>
<path transform="translate(298,688)" d="m0 0 10 3 3 2v2h10l5 5h4 8l5 5-1 8-5 23v8l-8-1-6-2v-7l7-26v-2l-5-1-2 10-5 18v6l-8-1-6-3 1-8 8-24v-2h-4l-9 26v6l-2 1-14-5-1-4 4-1 1-5 9-23v-6z" fill="#FEFEFC"/>
<path transform="translate(430,700)" d="m0 0h16l6 5 1 2v7l-4 5-3 3 6 1 5 5 1 3v9l-4 6-8 4-19 2h-8l1-5 1-1-1-35-1-5-2-1 1-4z" fill="#FEFEFC"/>
<path transform="translate(131,351)" d="m0 0 2 2 4 16 2 10 9 18 1 4v8l5-5 3-2 5 8 9 19-8 4-4 5-4 4-5 3h-2l-15-29-3-3v-59z" fill="#F8BD06"/>
<path transform="translate(550,663)" d="m0 0 5 1v9l7 1 6 5 2 4v10l-4 6-5 4-7 3-1 3 19-9h8l3 3 1 4-4 7-11 7-9 4h-7l-1-4v-3l-4-2-1-7 3-4-6-3-5-6-1-3v-8l3-6 6-5 4-1v-3l-5-1 1-4z" fill="#FEFEFC"/>
<path transform="translate(582,502)" d="m0 0h2l2 8v15l-3 7-9 8-20 7-9 2-7 2-9 3-14 3-24 5-13 1 5-4 10-9 24-4 10-2 9-3 16-8 12-9 10-10 2-4 4-4z" fill="#DE7930"/>
<path transform="translate(296,185)" d="m0 0h21l9 2 1 6 8 16 2 2-10 4-11 5-16 8-9 5-12 7-14 10-11 9h-2l-4-7 2-4 7-8 17-12 9-6 16-8 16-6 7-3h4l-7-8-10-6-8-3-5-2z" fill="#E07A31"/>
<path transform="translate(154,536)" d="m0 0 10 3 14 7 9 7 2 4h2l1 4v7l-3 5-4 4h-6l-6-4-5-8v8l-3 5-6-1-8-6-4-5-2-6 1-10 6-12z" fill="#D72B27"/>
<path transform="translate(491,476)" d="m0 0h2l1 3 1 56-11 12-11 8-10 4-7-1-1-2v-14l1-4 8-1 6-5 4-7 5-10 4-12 2-8 5-18z" fill="#ED9B28"/>
<path transform="translate(596,518)" d="m0 0 3 4 1 5h2l2 5-3 8-2 21-4 16-7 14-7 9-10 9-8 5-8 4-17 5-27 4-3-1 8-3 18-6 19-10 12-9 11-11 9-15 4-11 2-11 1-17 2-5z" fill="#F6BA08"/>
<path transform="translate(273,519)" d="m0 0h8l7 2 9 1 23 1 26 4 53 2 12 1 4 2 3 9-1 1h-11l-18-2-6-3h-12l-4 1h-17l-15-4-27-1-16-3-14-5-5-5z" fill="#C15F2F"/>
<path transform="translate(230,640)" d="m0 0 9 6 2 4-5 7 9 2 4 4v7l-16 26-1 5-2 1-10-7v-6l12-17 4-6 1-4-5 1-13 18-2 3-2 7-4-2-11-8 1-3 5-3 13-17 9-12 1-5z" fill="#FEFEFC"/>
<path transform="translate(514,566)" d="m0 0h6l-4 7-6 7h-2l-2 4-11 12-7 8-9 10-8 10-13 1h-21v-1l14-1 2-5 12-13 1-2h2l2-4 11-12 9-11 3-5-2-1z" fill="#C25F2F"/>
<path transform="translate(262,161)" d="m0 0 2 1 2 8v30l-4 13-7 12-8 10-8 8-3 1-3-10-11 11-7 3 1-5 9-15 5-7 11-9 6-7 6-12 4-9 4-16z" fill="#E55C2F"/>
<path transform="translate(541,559)" d="m0 0h5l-3 5-12 14-9 10-7 8-13 15-5 6v3l-18 3h-7l4-6 9-10 7-8 12-14 4-5h2l2-4 7-9-3-2z" fill="#943E2A"/>
<path transform="translate(264,674)" d="m0 0 10 2 9 6 2 3v7l-11 25v5l-5 1-6-3-3-5-10-1-6-5v-9l5-9 6-3 17 1 2-4v-3h-4l-3 4-6-1-4-3 1-5z" fill="#FEFEFC"/>
<path transform="translate(361,706)" d="m0 0h11l8 3 3 4v16l-1 17 1 4-2 1h-7l-5-3h-4l-8 1-6-3-2-3v-11l4-8 8-3 9-2 2-8-5 1-2 5-1 1h-7l-3-2 1-6 3-3z" fill="#FEFEFC"/>
<path transform="translate(657,534)" d="m0 0 5 1 7 6v2h2l4 8v13l-6 10-4 1-2-5-2-7-3 7-5 4h-9l-7-6-2-4v-8l4-7 8-8h2v-2h3v-2z" fill="#E15A2F"/>
<path transform="translate(491,697)" d="m0 0h2l10 34 4 5-3 3-8 2-5-1h-2l-5 4-2 1h-6l-4-3-4-18-3-15-2-1v-4l8-2h5l4 15 4 17 4 1 1-2-7-28-3-3 1-2z" fill="#FEFEFC"/>
<path transform="translate(215,549)" d="m0 0 1 3 3 1 9 16 4 11 5 10 9 11 10 8 10 6 17 6 14 3 17 3v1l-22-1-23-3-15-5-14-7-12-11-7-10-4-10-2-10z" fill="#F5A910"/>
<path transform="translate(390,117)" d="m0 0 3 1 8 16 6 13v2h2l8 17 9 16 7 16-1 2h-26v-1h14l-10-21-10-19-8-15-8-17-2-4z" fill="#EE9C28"/>
<path transform="translate(147,328)" d="m0 0 4 2 11 23 8 15 10 19 6 13v2h2l1 5-5 10-5-5-25-50-9-16-2 2v-9l3-10z" fill="#ED9C28"/>
<path transform="translate(587,650)" d="m0 0 9 1 8 7 2 4-12 9v3l8 10 5-1 1-1v-7l-1-4 3-3 4 2 1 9-3 6-6 5-10 2-8-3-5-5-6-9-1-3v-12l4-6 4-3z" fill="#FEFEFB"/>
<path transform="translate(203,623)" d="m0 0h8l6 5 1 2 5 3-2 5-5 7-4-1 2-12h-5l-2 4-15 16-7 9 1 3 4-1 3-2 4 1 1 4-3 3-6 1-7-3-5-6-1-2v-10l5-10 7-8 9-6z" fill="#FEFEFC"/>
<path transform="translate(373,420)" d="m0 0h2l-2 5-8 18-6 5h-2v2l-13 4h-15l-16-4-11-7h-9l-11 4-9 6-3 1h-14l-8-4h-8l-8-11-1-2 4 2 1 1 2-10 5 2 5 13 5 5 7 1 8-4 11-8 10-4h11l8 4 6 6v2l5 2 11 2h10l9-2 5-5 8-13 9-10z" fill="#FBF5E3"/>
<path transform="translate(455,492)" d="m0 0h19l2 1-3 13-6 15-6 8-5-1-4-5-7-15-4-12v-2l3-1z" fill="#ED9B28"/>
<path transform="translate(568,504)" d="m0 0 2 1-12 13-13 9-12 6-17 5-9 2h-4l2-4 4-5 4-8 4-4 26-6 23-8z" fill="#612A1B"/>
<path transform="translate(210,457)" d="m0 0h1l1 19 4 10 6 8 4 4-2 5-5 10-1 10h-1l-1-7-6-10-10-19-9-18-3-2 10-3z" fill="#F5B524"/>
<path transform="translate(600,483)" d="m0 0 4 2 13 26 2 5-11 10-4 5-2-4h-2l-3-6h-2l-2-18-3-8 1-4z" fill="#E57E31"/>
<path transform="translate(355,157)" d="m0 0 2 4 6 10 13 26 1 5-23 4-15 4-5-1-9-18v-3l9 3 11 7 9-1 12-2-8-14-3-11z" fill="#F3B225"/>
<path transform="translate(130,382)" d="m0 0 4 5 10 19 14 27 2 3-3 5-7 4h-2l-15-29-3-3z" fill="#F5AA10"/>
<path transform="translate(157,508)" d="m0 0 12 3 11 4 11 7 5 5 4 5 4 8 1 5v13l-4 15-2 1-2-16-5-12-6-10-11-13-9-7-2-1v-2l-5-2-2-1z" fill="#DE7830"/>
<path transform="translate(254,243)" d="m0 0m-2 1 2 1-5 5 2 6 2 4-5 6h-2v2h-2l-2 4-9 11-8 13-6 11-4-5h-4l-1-2 8-16 8-12 9-11 7-8h2l2-4z" fill="#D42C27"/>
<path transform="translate(618,623)" d="m0 0 6 3 2 5-2 3h-5l3 5 15 16 6 2-2 4-10 9-4-1-3-7-11-12-6-7v-2l-5-1 1-4 8-6 4 3-1-7z" fill="#FEFEFC"/>
<path transform="translate(172,470)" d="m0 0h6l2 6 20 40 1 6-8-6-7-5-7-3-5-12-8-15-4-10z" fill="#F4B425"/>
<path transform="translate(522,686)" d="m0 0 4 2 2 4-1 5-4 1-2-1 1 6 8 21 4 2-1 3-14 5-3-1v-7l-10-28-3-3 1-2 8-3h3l2 4 2-7z" fill="#FEFEFC"/>
<path transform="translate(374,128)" d="m0 0 5 5 8 16 10 19 8 16 7 15-12 1 2-2-14-27-9-17-8-17-1-3-3-1z" fill="#F5B525"/>
<path transform="translate(367,416)" d="m0 0h16l-1 4-6 4-6 16-6 6-2-1 4-6 6-14 3-5-6 4-7 8-9 15-5 3 1-6h-5v-9l7-10 10-7z" fill="#94A43D"/>
<path transform="translate(637,431)" d="m0 0 2 3 11 22 10 19 1 4 2 1-3 2-1 8-3-1-12-22-8-16-6-13 6-5z" fill="#DD452E"/>
<path transform="translate(146,464)" d="m0 0 8 4 18 2v1l-9 1 8 16 8 17v2l-5-1-12-6-12-25-4-9z" fill="#E47D31"/>
<path transform="translate(262,161)" d="m0 0 2 1 2 8v30l-4 13-3 5-4-2-5-9v-2h-2l1-4 4-8 4-9 4-16z" fill="#DE7930"/>
<path transform="translate(166,541)" d="m0 0 4 1 11 6 8 7v2h2l1 4v7l-3 5-4 4h-4l-5-12-9-17z" fill="#E45C2F"/>
<path transform="translate(623,526)" d="m0 0 4 4 4 7-1 5-6 13-2 16-4-5-3-8-1-6v-13l4-8z" fill="#E07A31"/>
<path transform="translate(129,412)" d="m0 0 4 2 9 17 7 15-4 5-2 7-4-4-10-19z" fill="#E57E31"/>
<path transform="translate(596,518)" d="m0 0 3 4 1 5h2l2 5-3 8-2 21-3 12-5-4-3-5 3-14 1-17 2-5z" fill="#F5A912"/>
<path transform="translate(210,457)" d="m0 0h1l1 19 4 10 6 8 4 4-2 5-2 3h-3l-12-23-8-15-1-4z" fill="#F3A612"/>
<path transform="translate(477,126)" d="m0 0h5l16 32-2 4-5 3-5-8-13-26v-2l-4-1z" fill="#DC452E"/>
<path transform="translate(521,564)" d="m0 0h7l-3 5-12 14-10 11-7 8-12 14-5 7h-7l4-6 9-10 7-8 12-14 4-5h2l2-4 7-9-3-2z" fill="#AB4D2D"/>
<path transform="translate(530,562)" d="m0 0h5l-2 5-9 10-7 8-9 10-9 11-9 10-2 5-2 1h-7l4-6 10-11 7-8 12-14 10-11 5-7-2-2z" fill="#9B472A"/>
<path transform="translate(183,228)" d="m0 0 4 4 2 5h2v3h2v3h2l5 10 4 12v18l-2-2-1-7-10-19-7-13h-3l1-11z" fill="#D4442D"/>
<path transform="translate(245,602)" d="m0 0 4 2 15 10 15 6 18 4 17 3v1l-22-1-23-3-15-5-4-2-5-12z" fill="#F8BC08"/>
<path transform="translate(557,604)" d="m0 0 3 1 3 6v3l-8 4-17 5-27 4-3-1 8-3 18-6 19-10z" fill="#F1A413"/>
<path transform="translate(156,386)" d="m0 0 3 3v2h2l14 28 5 7v4h-10l-2-6-10-20-2-3z" fill="#F5B425"/>
<path transform="translate(215,403)" d="m0 0h11l-1 5-3 3h-2l-2 5-4 13-1 1h-6l-2-4v-7l3-7 6-5z" fill="#FCF5E4"/>
<path transform="translate(265,234)" d="m0 0 2 1 1 5 2 3-1 4-15 12h-2l-4-7 2-4 7-8z" fill="#E45C2F"/>
<path transform="translate(574,589)" d="m0 0 5 5 2 6-10 9-6 4h-2l-4-8 2-4 8-7z" fill="#F0AE25"/>
<path transform="translate(574,417)" d="m0 0 3 3 3 5v2l2 1-8 2-5 4-3 1h-15l-10-2v-2h-3l-2-4 13 2h10l12-4 2-6z" fill="#FBF4E2"/>
<path transform="translate(283,178)" d="m0 0 2 1 4 13v12l-4 3-7-1-1-2v-12l5-13z" fill="#DE7930"/>
<path transform="translate(538,520)" d="m0 0h7v4l-16 6-16 4h-5l2-6 1-2 11-3 12-2z" fill="#C05F2F"/>
<path transform="translate(130,382)" d="m0 0 4 5 10 19 14 27 2 3-3 4-6-10-10-20-10-18z" fill="#F5B525"/>
<path transform="translate(131,402)" d="m0 0 4 4 18 36-3 3h-2l-15-29-3-3v-7z" fill="#EE9D28"/>
<path transform="translate(215,549)" d="m0 0h1v21h2l6 10 11 22v5l-7-6-7-10-4-10-2-10z" fill="#DF8D28"/>
<path transform="translate(518,215)" d="m0 0 15 8 2 3 1 6 3 10-4-1-3-3-2-1v-2l-5-2-4-3-1-6-2-5z" fill="#D8452E"/>
<path transform="translate(162,471)" d="m0 0h6l9 17 8 17 2 6-8-3-5-12-8-15z" fill="#ED9C28"/>
<path transform="translate(168,471)" d="m0 0h6l5 12 10 19 5 11v2l-4-1-3-2-4-10-10-19-5-10z" fill="#F5A910"/>
<path transform="translate(202,191)" d="m0 0h2l4 10v11l-3 3h-7l-2-2v-10z" fill="#D02C27"/>
<path transform="translate(293,442)" d="m0 0h9l11 7 16 4h15l8-3 3 1-8 4-8 2h-18l-20-9-10-2v-3z" fill="#959A3A"/>
<path transform="translate(229,223)" d="m0 0 3 3 5 11 1 2 3 2-5 3-3-10-11 11-7 3 1-5 9-15z" fill="#CD2C27"/>
<path transform="translate(325,188)" d="m0 0 9 3 7 4-2 1 4 10 5 1v1l-9 2-5-1-9-18z" fill="#EC9A28"/>
<path transform="translate(434,50)" d="m0 0 6 4 8 12 3 9v17h-1l-2-10-12-23-2-5z" fill="#D3442D"/>
<path transform="translate(238,430)" d="m0 0 5 2 5 13 5 5 3 2-3 1-5-3h-8l-8-11-1-2 4 2 1 1z" fill="#FBF4E1"/>
<path transform="translate(596,518)" d="m0 0 3 4 1 5h2l2 5-3 8-1 6-7-7-1-6 2-5z" fill="#EE9B28"/>
<path transform="translate(607,420)" d="m0 0 5 1 4 5 1 6-1 2-10-1-5-2 1-6z" fill="#FCF5E4"/>
<path transform="translate(542,613)" d="m0 0 2 1-1 3v3l3 1-19 4-19 2 1-2 25-8z" fill="#CA6B2D"/>
<path transform="translate(425,247)" d="m0 0h3l2 7-1 8-2 2-6-1-3-4v-6z" fill="#FCF1CE"/>
<path transform="translate(503,182)" d="m0 0h23l1 2-14 5-8 4-3-5-1-5z" fill="#D9452E"/>
<path transform="translate(189,522)" d="m0 0 4 2 5 5 6 11v12l-4-5-9-17-2-5z" fill="#EC9928"/>
<path transform="translate(269,617)" d="m0 0 10 3 18 4 17 3v1l-22-1-23-3-2-2h2z" fill="#C88324"/>
<path transform="translate(437,723)" d="m0 0 4 2 2 14-1 7-5 1-1-1-1-11v-11z" fill="#C65026"/>
<path transform="translate(216,552)" d="m0 0 3 1 9 16 4 11 3 7-3-1-6-10-6-11-4-5z" fill="#F3B224"/>
<path transform="translate(423,332)" d="m0 0 4 2 4 5 1 2v8l-7 1-2-3z" fill="#FCF1CD"/>
<path transform="translate(218,289)" d="m0 0 5 5 1 4-5 9-4-5h-4l-1-2 3-6z" fill="#D3432D"/>
<path transform="translate(548,678)" d="m0 0 4 1 9 16-2 4-4-1-8-16z" fill="#C54F26"/>
<path transform="translate(637,555)" d="m0 0 3 1 7 14v3l-6-1-5-6-1-2v-8z" fill="#E57D31"/>
<path transform="translate(235,588)" d="m0 0 4 5 7 8 1 6 3 9-5-1-2-2v-2l-7-16z" fill="#F0AF25"/>
<path transform="translate(301,265)" d="m0 0h1v8l-4 6-5 1-3-3 1-6 7-5z" fill="#FCF1CD"/>
<path transform="translate(494,416)" d="m0 0h3l-1 4-11 4-11 3-14 4h-3v-2l-2-1 25-6 12-5z" fill="#8D8F3A"/>
<path transform="translate(590,554)" d="m0 0 5 2 2 3 2-1-2 11-2 4-7-8z" fill="#F1AF25"/>
<path transform="translate(339,196)" d="m0 0 10 2 4 1 1 7-11 1-4-8z" fill="#F5A812"/>
<path transform="translate(166,541)" d="m0 0 4 1 3 10 11 21 1 4h-4l-5-12-9-17z" fill="#DB452E"/>
<path transform="translate(267,693)" d="m0 0 3 1-7 15-4 2-2-2 1-6 6-9z" fill="#C44F26"/>
<path transform="translate(367,724)" d="m0 0 4 1-2 16-2 2-4-1v-10l3-7z" fill="#C44E26"/>
<path transform="translate(381,250)" d="m0 0h3v7l-3 5-5 1-3-5 2-5z" fill="#FCF1CD"/>
<path transform="translate(475,279)" d="m0 0h8l2 4-2 9-7-4-2-3v-5z" fill="#FCF1CE"/>
<path transform="translate(618,623)" d="m0 0 6 3 2 5-2 3h-5l-1 2h-2l-2-6 1-5z" fill="#FEFDF9"/>
<path transform="translate(320,306)" d="m0 0h2l1 10-2 4-5 1-3-3 1-6z" fill="#FCF1CD"/>
<path transform="translate(465,296)" d="m0 0 7 6 1 6-1 1h-7l-3-3 1-7z" fill="#FCF1CD"/>
<path transform="translate(391,308)" d="m0 0 3 1v10l-4 4-5-3 1-7z" fill="#FCF1CD"/>
<path transform="translate(374,288)" d="m0 0 2 2v10l-2 3h-5l-2-2 1-7z" fill="#FCF1CE"/>
<path transform="translate(582,441)" d="m0 0h7l5 2-1 2-11 3h-7l-3-3 3-2z" fill="#AF552C"/>
<path transform="translate(435,703)" d="m0 0 4 2 1 5v8l-2 2h-4l-1-16z" fill="#C75227"/>
<path transform="translate(292,307)" d="m0 0h2v7l-3 6-5-1-2-2 1-6z" fill="#FCF1CE"/>
<path transform="translate(351,234)" d="m0 0h7l4 2-2 4-5 3h-5l-1-1v-6z" fill="#FCF1CD"/>
<path transform="translate(394,233)" d="m0 0 7 1 1 1v8l-1 2-5-2-4-6z" fill="#FCF1CE"/>
<path transform="translate(312,280)" d="m0 0h5l4 5 1 6-9-2-2-2v-6z" fill="#FCF1CE"/>
<path transform="translate(496,276)" d="m0 0 6 1 4 4-6 4h-6l-1-1 1-7z" fill="#FCF1CE"/>
<path transform="translate(445,265)" d="m0 0 2 2 1 9-1 2h-5l-3-4 1-5z" fill="#FCF1CD"/>
<path transform="translate(455,252)" d="m0 0 6 1 2 2-1 9-4-1-5-6 1-4z" fill="#FCF1CF"/>
<path transform="translate(439,295)" d="m0 0h3l2 9-1 3-3 1-5-4 1-7z" fill="#FCF1CE"/>
<path transform="translate(499,258)" d="m0 0 2 2 1 8-2 3-5-1-2-2 1-6z" fill="#FCF1CD"/>
<path transform="translate(459,234)" d="m0 0 6 1-3 7-3 3-4-1-1-1v-6z" fill="#FCF1CD"/>
<path transform="translate(232,220)" d="m0 0 3 4 7 13v3l-5-1-4-9-3-6v-3z" fill="#DB452E"/>
<path transform="translate(405,296)" d="m0 0 5 2 4 5-2 4h-6l-2-3v-7z" fill="#FCF1CC"/>
<path transform="translate(573,709)" d="m0 0h4l-2 4-9 6-7 1 1-4z" fill="#C75227"/>
<path transform="translate(435,314)" d="m0 0 5 3 3 4v6l-4 1-3-2-1-4z" fill="#FCF1CE"/>
<path transform="translate(342,308)" d="m0 0 9 1 4 4-2 4-3 1-6-5z" fill="#FCF1CE"/>
<path transform="translate(339,284)" d="m0 0h8l4 3-1 5-4 1-5-4z" fill="#FCF1CE"/>
<path transform="translate(548,610)" d="m0 0h2l2 7 3 1-7 2h-5l-1-5 4-4z" fill="#E89528"/>
<path transform="translate(358,323)" d="m0 0 7 3 2 5-2 2-7-1-1-7z" fill="#FCF1CF"/>
<path transform="translate(585,655)" d="m0 0 3 1 6 8-1 3-4 1-6-9z" fill="#C85327"/>
<path transform="translate(479,313)" d="m0 0 4 2 3 4-1 4-4 1-4-3 1-7z" fill="#FCF1CE"/>
<path transform="translate(503,182)" d="m0 0h23l1 2-11 4-4-1-1-3-8-1z" fill="#B32F25"/>
<path transform="translate(338,334)" d="m0 0 5 3 1 4-2 1h-9l1-6z" fill="#FCF1CE"/>
<path transform="translate(509,291)" d="m0 0 7 1 2 4-6 3-5-1v-5z" fill="#FCF1CD"/>
<path transform="translate(157,508)" d="m0 0 12 3 3 2v7l-8-5v-2l-5-2-2-1z" fill="#CB542D"/>
<path transform="translate(254,243)" d="m0 0m-2 1 2 1-5 5 2 6 2 4-3 2-6-9 2-4z" fill="#D1462C"/>
<path transform="translate(472,424)" d="m0 0h5l-3 3-14 4h-3v-2l-2-1z" fill="#857934"/>
<path transform="translate(407,282)" d="m0 0h6l-1 4-3 3h-5l-1-4z" fill="#FCF1CF"/>
<path transform="translate(376,222)" d="m0 0 4 1 3 5v2l-7-1-2-2 1-4z" fill="#FCF1CE"/>
<path transform="translate(371,430)" d="m0 0h2l-1 5-3 6-5 5-2-1 4-6 3-8z" fill="#949D3C"/>
<path transform="translate(327,260)" d="m0 0 4 1 3 7-7-1-2-2 1-4z" fill="#FCF1CF"/>
<path transform="translate(347,253)" d="m0 0 5 1 2 3v4l-6-1-2-2z" fill="#FCF1CE"/>
<path transform="translate(394,268)" d="m0 0 7 1-2 4-3 2-4-1 1-5z" fill="#FCF2D1"/>
<path transform="translate(210,457)" d="m0 0h1v14l-4-5-2-6z" fill="#E8912A"/>
<path transform="translate(411,221)" d="m0 0 5 1 1 5-2 3-3-1-2-4z" fill="#FCF1CF"/>
<path transform="translate(317,244)" d="m0 0 6 2-2 4-6 1-1-3z" fill="#FCF1D0"/>
<path transform="translate(419,234)" d="m0 0 6 1-1 4-3 2-4-1 1-5z" fill="#FCF1CE"/>
<path transform="translate(253,390)" d="m0 0 8 1 7 2v2l-9-1-10-2z" fill="#C0692A"/>
<path transform="translate(562,701)" d="m0 0 2 1v3l-8 4h-3l1-4z" fill="#CB5C28"/>
<path transform="translate(517,275)" d="m0 0h7v3l-3 3-5-1z" fill="#FCF1CE"/>
<path transform="translate(367,270)" d="m0 0h6l3 2-1 5-5-2z" fill="#FCF1CF"/>
<path transform="translate(218,401)" d="m0 0h9l2 2-1 4-6 6h-2v-2l5-4 1-5h-8z" fill="#83622B"/>
<path transform="translate(597,355)" d="m0 0 4 5v4l-5-1v-7z" fill="#D2422C"/>
<path transform="translate(233,232)" d="m0 0h2l3 7 3 2-5 3-2-5z" fill="#B43125"/>
<path transform="translate(289,623)" d="m0 0 11 2v1h-17v-1h6z" fill="#CF7B29"/>
<path transform="translate(279,621)" d="m0 0 7 1 3 1v2l-9-1z" fill="#F4A714"/>
</svg>
